<?xml version="1.0" encoding="utf-8"?>
<!-- Generator: Adobe Illustrator 24.0.0, SVG Export Plug-In . SVG Version: 6.00 Build 0)  -->
<svg version="1.1" id="Layer_1" xmlns="http://www.w3.org/2000/svg" xmlns:xlink="http://www.w3.org/1999/xlink" x="0px" y="0px"
	 viewBox="0 0 3228 2000" style="enable-background:new 0 0 3228 2000;" xml:space="preserve">
<style type="text/css">
	.st0{fill:#FFFFFF;}
	.st1{opacity:0.5;fill:#FAE0B2;}
	.st2{fill:#F47458;}
	.st3{fill:#C5DDF9;}
	.st4{fill:#F3FAFF;}
	.st5{fill:#355389;}
	.st6{fill:#0E2E35;}
	.st7{fill:#3C8F7C;}
	.st8{opacity:0.3;fill:#3C8F7C;}
	.st9{fill:#327F6B;}
	.st10{fill:#F48C7F;}
	.st11{fill:#F7A491;}
	.st12{fill:#13375B;}
	.st13{fill:#96D9C9;}
	.st14{fill:#B75742;}
	.st15{fill:#042126;}
	.st16{fill:#184655;}
	.st17{fill:#466EB6;}
	.st18{opacity:0.5;}
	.st19{fill:#D3E8F4;}
	.st20{fill:#B2DBED;}
	.st21{fill:#F7CC7F;}
	.st22{fill:#91BAE2;}
	.st23{fill:#6FA1C9;}
	.st24{fill:#FAE0B2;}
	.st25{fill:#A53F2F;}
	.st26{fill:#F79C8D;}
	.st27{fill:#F8A492;}
	.st28{fill:#DAEEF7;}
</style>
<g>
	<g>
		<rect class="st0" width="3228" height="2000"/>
	</g>
</g>
<g>
	<path class="st1" d="M1155.88,249.31c0,0,765.81,98.55,694.53,275.35s381.1-62.8,561.63,0.95
		c128.53,45.38,77.15,183.53,139.33,239.2c142.57,127.64,288.38-33.09,469.82,63.34c181.45,96.43,112.13,991.4,38.25,991.27
		l-2804.28,2.39l-33.48,0.95c0,0-4.77-171.2-19.44-410.32c-8.68-141.49,58.22-220.44,35.64-278.91
		c-25.92-67.13-118.75-258.78,145.68-342.68c191.66-60.81,196.79-273.42,189.01-312C572.58,478.85,498.45,173.75,1155.88,249.31z"/>
	<rect x="2131.21" y="652.68" class="st2" width="550.68" height="1161.2"/>
	<g>
		<path class="st3" d="M884.39,1067.26h288.84c2.07,0,3.75-1.68,3.75-3.75V632.46H880.64v431.04
			C880.64,1065.58,882.32,1067.26,884.39,1067.26z"/>
		
			<rect x="918.43" y="686.38" transform="matrix(-1 -1.224647e-16 1.224647e-16 -1 2057.7109 1379.7637)" class="st4" width="220.85" height="7"/>
		
			<rect x="918.43" y="730.28" transform="matrix(-1 -1.224647e-16 1.224647e-16 -1 2057.7109 1467.5605)" class="st4" width="220.85" height="7"/>
		
			<rect x="1031.73" y="774.18" transform="matrix(-1 -1.224647e-16 1.224647e-16 -1 2171.0112 1555.3574)" class="st4" width="107.55" height="7"/>
		
			<rect x="1031.73" y="818.08" transform="matrix(-1 -1.224647e-16 1.224647e-16 -1 2171.0112 1643.1543)" class="st4" width="107.55" height="7"/>
		
			<rect x="918.43" y="849.63" transform="matrix(-1 -1.224647e-16 1.224647e-16 -1 2057.7109 1706.2646)" class="st4" width="220.85" height="7"/>
		
			<rect x="918.43" y="883.92" transform="matrix(-1 -1.224647e-16 1.224647e-16 -1 1935.3174 1774.8506)" class="st4" width="98.46" height="7"/>
		
			<rect x="918.43" y="927.82" transform="matrix(-1 -1.224647e-16 1.224647e-16 -1 1935.3174 1862.6475)" class="st4" width="98.46" height="7"/>
		
			<rect x="918.43" y="972.3" transform="matrix(-1 -1.224647e-16 1.224647e-16 -1 1935.3174 1951.5947)" class="st4" width="98.46" height="7"/>
		
			<rect x="918.43" y="1017.34" transform="matrix(-1 -1.224647e-16 1.224647e-16 -1 1935.3174 2041.6914)" class="st4" width="98.46" height="7"/>
		<path class="st4" d="M900.01,653.85h257.59v393.05H900.01V653.85z M1153.37,658.08H904.24v384.58h249.13V658.08z"/>
		
			<rect x="928.18" y="759.81" transform="matrix(-1 -1.224647e-16 1.224647e-16 -1 1930.5098 1577.3071)" class="st4" width="74.15" height="57.68"/>
		
			<rect x="1044.13" y="881.19" transform="matrix(-1 -1.224647e-16 1.224647e-16 -1 2179.4604 1896.4102)" class="st4" width="91.2" height="134.04"/>
		
			<rect x="869.86" y="632.46" transform="matrix(-1 -1.224647e-16 1.224647e-16 -1 2056.165 1274.0161)" class="st2" width="316.44" height="9.09"/>
	</g>
	<path class="st3" d="M408.21,1084.46h337.86c1.7,0,3.07-1.38,3.07-3.07V594.9H405.14v486.5
		C405.14,1083.09,406.52,1084.46,408.21,1084.46z"/>
	
		<rect x="393.23" y="594.9" transform="matrix(-1 -1.224647e-16 1.224647e-16 -1 1154.2905 1199.4869)" class="st5" width="367.83" height="9.69"/>
	<g>
		<rect x="694.84" y="1418.83" class="st6" width="14.74" height="159.37"/>
		<path class="st7" d="M751.54,1486.35h-281.5v-157.02c0-31.42,27.23-56.89,60.82-56.89h159.87c33.59,0,60.82,25.47,60.82,56.89
			L751.54,1486.35L751.54,1486.35z"/>
		<path class="st8" d="M690.84,1272.44H530.73c-33.52,0-60.69,27.17-60.69,60.69v27.93c0-33.52,27.17-60.69,60.69-60.69h160.12
			c33.52,0,60.69,27.17,60.69,60.69v-27.93C751.54,1299.61,724.36,1272.44,690.84,1272.44z"/>
		<polygon class="st6" points="759.55,1815.71 773.72,1815.71 743.52,1552.02 729.35,1552.02 		"/>
		<polygon class="st6" points="462.01,1815.71 447.85,1815.71 478.05,1552.02 492.22,1552.02 		"/>
		<rect x="464.64" y="1498.44" class="st6" width="11.05" height="67.86"/>
		<path class="st9" d="M493.5,1501.39h-46.94c-8.31,0-15.05-6.74-15.05-15.05v0c0-8.31,6.74-15.05,15.05-15.05h46.94
			c8.31,0,15.05,6.74,15.05,15.05v0C508.55,1494.66,501.81,1501.39,493.5,1501.39z"/>
		<rect x="746.14" y="1498.44" class="st6" width="11.05" height="67.86"/>
		<path class="st9" d="M775.01,1501.39h-46.94c-8.31,0-15.05-6.74-15.05-15.05l0,0c0-8.31,6.74-15.05,15.05-15.05h46.94
			c8.31,0,15.05,6.74,15.05,15.05l0,0C790.05,1494.66,783.32,1501.39,775.01,1501.39z"/>
		<path class="st9" d="M773.72,1607.8H447.85v-16.65c0-24.33,19.72-44.04,44.04-44.04h237.79c24.32,0,44.04,19.72,44.04,44.04
			V1607.8z"/>
	</g>
	<polygon class="st10" points="818.28,1398.79 808.19,1399.98 809.61,1406.82 	"/>
	<path class="st11" d="M656.91,1391.73c-0.43-12.84-0.33-39.04,2.47-64.36c12.22,17.56,25.68,33.62,27.95,37.8
		c1.13,2.09,13.46,55.13,13.46,55.13s103.68-11.4,103.77-11.5l0.39,23.69c-3.87,0.15-127.55,28.44-134.19,26.99
		C664.93,1458.2,657.89,1420.64,656.91,1391.73z"/>
	<g>
		<path class="st2" d="M805.93,1370.03c0.05,0.25,0.1,0.5,0.14,0.75c0.3,1.55,0.6,3.1,0.9,4.65c0.08,0.42,0.16,0.85,0.25,1.28
			l-41.84,16.64l-31.11-0.38l-2.09-7.38l2.35-0.77l2.44,1.29l2.3-1.54l2.48,1.23l2.26-1.59l2.5,1.18l2.23-1.64l2.53,1.13l2.19-1.69
			l2.55,1.07l2.15-1.74l2.58,1.01l2.11-1.79l2.6,0.95l2.07-1.84l2.62,0.88l2.02-1.9l2.65,0.81l1.96-1.95l2.67,0.73l1.9-2.02
			l2.69,0.63l1.82-2.09l2.72,0.53l1.73-2.16l2.74,0.41l1.63-2.24l2.76,0.27l1.5-2.32l2.77,0.1l1.35-2.41l2.38-0.67
			C805.6,1368.31,805.76,1369.17,805.93,1370.03z"/>
		<path class="st12" d="M807.02,1376.12c0.5-0.28,4.18,29.89,6.96,37.46c2.78,7.57,10.51,34.93,10.51,34.93l-73.5,18.62
			c0,0-5.61-39.84-9.02-51.89c-3.42-12.05-8.2-21.99-7.69-22.28C734.79,1392.68,790.33,1385.5,807.02,1376.12z"/>
		<path class="st13" d="M749.58,1429.44c2.54,8.9,17.66,12.39,33.76,7.79c16.1-4.6,27.08-15.55,24.54-24.45
			c-2.55-8.9-17.66-12.39-33.76-7.79C758.02,1409.59,747.04,1420.54,749.58,1429.44z"/>
	</g>
	<path class="st11" d="M803.17,1423.32c-0.4,2.69,1.29,5.27,3.93,5.97c4.95,1.32,13.41,2.55,15.96-3.43
		c3.68-8.63-1.8-28.36-5.12-27.01s-17.02,15.5-15.14,18.83C803.89,1419.62,803.46,1421.36,803.17,1423.32z"/>
	<path class="st6" d="M658.1,1395.08c-10.35-39.8-57.11-120.92-33.61-113.42c42.13,13.44,62.23,22.43,76.53,105.35
		C689.15,1390.51,671.59,1395,658.1,1395.08z"/>
	<g>
		<rect x="958.15" y="1418.83" class="st6" width="14.74" height="159.37"/>
		<rect x="1141.01" y="1418.83" class="st6" width="14.74" height="159.37"/>
		<path class="st7" d="M1197.7,1486.35H916.2V1333.4c0-33.67,27.29-60.96,60.96-60.96h159.57c33.67,0,60.96,27.29,60.96,60.96
			V1486.35z"/>
		<path class="st8" d="M1137.01,1272.44H976.89c-33.52,0-60.69,27.17-60.69,60.69v27.93c0-33.52,27.17-60.69,60.69-60.69h160.12
			c33.52,0,60.69,27.17,60.69,60.69v-27.93C1197.7,1299.61,1170.53,1272.44,1137.01,1272.44z"/>
		<polygon class="st6" points="1205.72,1815.71 1219.89,1815.71 1189.68,1552.02 1175.51,1552.02 		"/>
		<polygon class="st6" points="908.18,1815.71 894.01,1815.71 924.21,1552.02 938.38,1552.02 		"/>
		<rect x="910.8" y="1498.44" class="st6" width="11.05" height="67.86"/>
		<path class="st9" d="M939.67,1501.39h-46.94c-8.31,0-15.05-6.74-15.05-15.05l0,0c0-8.31,6.74-15.05,15.05-15.05h46.94
			c8.31,0,15.05,6.74,15.05,15.05l0,0C954.71,1494.66,947.98,1501.39,939.67,1501.39z"/>
		<rect x="1192.31" y="1498.44" class="st6" width="11.05" height="67.86"/>
		<path class="st9" d="M1221.17,1501.39h-46.94c-8.31,0-15.05-6.74-15.05-15.05l0,0c0-8.31,6.74-15.05,15.05-15.05h46.94
			c8.31,0,15.05,6.74,15.05,15.05l0,0C1236.22,1494.66,1229.48,1501.39,1221.17,1501.39z"/>
		<path class="st9" d="M1219.89,1607.8H894.01v-16.65c0-24.33,19.72-44.04,44.04-44.04h237.79c24.32,0,44.04,19.72,44.04,44.04
			V1607.8z"/>
	</g>
	<g>
		<rect x="1404.46" y="1418.83" class="st6" width="14.74" height="159.37"/>
		<rect x="1587.32" y="1418.83" class="st6" width="14.74" height="159.37"/>
		<path class="st7" d="M1601.56,1486.35h-196.6c-23.45,0-42.45-19.01-42.45-42.45v-110.8c0-33.5,27.16-60.66,60.66-60.66h160.19
			c33.5,0,60.66,27.16,60.66,60.66v110.8C1644.01,1467.34,1625,1486.35,1601.56,1486.35z"/>
		<path class="st8" d="M1583.31,1272.44H1423.2c-33.52,0-60.69,27.17-60.69,60.69v27.93c0-33.52,27.17-60.69,60.69-60.69h160.12
			c33.52,0,60.69,27.17,60.69,60.69v-27.93C1644.01,1299.61,1616.83,1272.44,1583.31,1272.44z"/>
		<polygon class="st6" points="1652.03,1815.71 1666.19,1815.71 1635.99,1552.02 1621.82,1552.02 		"/>
		<polygon class="st6" points="1354.49,1815.71 1340.32,1815.71 1370.52,1552.02 1384.69,1552.02 		"/>
		<rect x="1357.11" y="1498.44" class="st6" width="11.05" height="67.86"/>
		<rect x="1638.61" y="1498.44" class="st6" width="11.05" height="67.86"/>
		<path class="st9" d="M1667.48,1501.39h-46.94c-8.31,0-15.05-6.74-15.05-15.05l0,0c0-8.31,6.74-15.05,15.05-15.05h46.94
			c8.31,0,15.05,6.74,15.05,15.05l0,0C1682.52,1494.66,1675.79,1501.39,1667.48,1501.39z"/>
		<path class="st9" d="M1666.19,1607.8h-325.88v-16.65c0-24.33,19.72-44.04,44.04-44.04h237.79c24.33,0,44.04,19.72,44.04,44.04
			V1607.8z"/>
	</g>
	<path class="st6" d="M605.63,1278.94c0.34,0,0.7,0,1.06,0.01c34.83,0.51,63.27,28.04,65.38,62.81l11.35,187.44l-169.06-1.7
		l10.03-228.36c0,0,0.87-10.61,9.44-12.08c4.71-0.81,11.9-2.04,22.84-3.93C571.06,1280.65,591.04,1278.92,605.63,1278.94z"/>
	<path class="st5" d="M639.34,1519.84c0,0,83.86-12.59,107.25,0.59c23.39,13.18-24.95,73.45-24.95,73.45s-64.4-4.23-83.4-4.12
		c-18.86,0.12-76.5,4.81-110-0.04c-33.5-4.85-29.71-61.72-23.39-68.66C511.16,1514.13,639.34,1519.84,639.34,1519.84z"/>
	<path class="st11" d="M670,1763.27c0,0-3.55,12.62,3.7,20.68c7.25,8.06,36.61,15.33,40.56,19.69c3.95,4.37,3.78,8.19,3.78,8.19
		l-81.8,0.15l0.17-24.63l3.25-17.79L670,1763.27z"/>
	<path class="st2" d="M678.9,1787.93c0,0-20.75,9.08-31.04,4.37c-10.29-4.71-10.03-6.11-12.91-4.16
		c-2.88,1.96-3.26,25.05-3.26,25.05h91.98c6.39-0.33,9.49-5.12,4.17-8.99c-3.64-2.65-7.81-4.38-10.19-5.64
		C710.35,1794.65,678.9,1787.93,678.9,1787.93z"/>
	<path class="st11" d="M580.9,1726.24c0,0,3.27,37.56,9.27,47.97c6,10.4-0.32,28.09-0.63,30.51c-0.32,2.43-12.64,5.89-32.23,3.81
		c-19.59-2.08-19.28-6.59-17.7-13.87c1.58-7.28,12.01-16.64,12.64-23.58c0.63-6.93-6-31.9-6-31.9L580.9,1726.24z"/>
	<path class="st2" d="M554.86,1813.61c-20.18-2.14-17.68-12.02-16.05-19.52c1.02-4.69,6.81-10.23,10.26-15.46
		c1.8,1.43,4.74,3.96,13.5,6.54c9.1,2.68,21.57-2.62,29.52-5.94c2.83,10.51,2.96,23.91,2.7,25.94
		C594.45,1807.66,575.03,1815.75,554.86,1813.61z"/>
	<g>
		<path class="st12" d="M594.59,1146.74c0,0-18.89-14.06-29.4,7.13c0.08-0.17-7.07-0.67-8.06-0.44c-4.24,0.96-8.59,4.6-12.47,6.48
			c-13.81,6.69-21.24,21.2-23.23,34.91c-2.42,16.64,3.95,29.45,14.76,42.45c3.19,3.83,6.62,7.6,11.02,10.23
			c5.3,3.18,9.9,1.35,15.01,2.92c4.31,1.33,5.45,5.72,10.78,4.59c7.47-1.59,15.88-9.37,24.78-7.42c8.89,1.95,30.36-3.87,30.42-3.89
			c27.59-7.48,13.98-56.48,10.43-73.77C635.29,1153.69,611.64,1142.3,594.59,1146.74z"/>
		<path class="st11" d="M608.68,1256.74l5.32,17.97l2.83,10.03c0,0,4.81,11.44-8.42,13.6c-25.39,4.15-34.67-16.07-34.67-16.07
			l-4.81-55.58L608.68,1256.74z"/>
		<path class="st2" d="M570.5,1244.7c10.31,17.9,30.06,27.26,43.55,30.18l-5.37-18.14l-39.74-30.05L570.5,1244.7z"/>
		<path class="st11" d="M582.28,1171.03c16.74-7.71,36.99,0.74,42.07,17.06c2.21,7.09,4.57,16.07,6.21,25.99
			c3.92,23.87-6.17,48.81-17.98,50.25c-11.8,1.44-46.66-10.06-52.74-43.89C556.08,1199.56,564.71,1179.12,582.28,1171.03z"/>
		<path class="st11" d="M568.93,1222.07c0.76,5.28-2.42,10.02-7.11,10.6c-4.69,0.57-9.11-3.24-9.87-8.52
			c-0.76-5.28,2.42-10.02,7.11-10.6C563.74,1212.98,568.16,1216.79,568.93,1222.07z"/>
	</g>
	<path class="st12" d="M603.8,1234.59c0,0-15.69,3.39-17.42,8.45c-1.73,5.07-0.55,12.67,6.4,19c6.95,6.33,23.27,4.05,27.92,1.24
		c4.65-2.81,9.22-15.94,5.55-23.74C622.59,1231.74,603.8,1234.59,603.8,1234.59z"/>
	<path class="st11" d="M597.81,1245c0,0-0.44,5.76,1.55,6.96c1.93,1.16,4.41,2.21,6.77,2.6c3.81,0.64,7.42-0.6,9.69-3.17
		c0.22-0.25,0.43-0.52,0.61-0.79c1.82-2.75,2.61-7.79,2.61-7.79s-6.31-1.94-10.1-1.66C605.16,1241.44,597.81,1245,597.81,1245z"/>
	<g>
		<rect x="2205.62" y="723.4" class="st14" width="398" height="474"/>
		<rect x="2220.62" y="741.26" class="st3" width="368" height="438.27"/>
		<polygon class="st0" points="2387.49,1179.54 2433.98,1179.54 2588.62,741.26 2542.12,741.26 		"/>
		<polygon class="st0" points="2449.73,741.26 2353.89,741.26 2220.62,1119 2220.62,1179.54 2295.09,1179.54 		"/>
	</g>
	<g>
		<path class="st11" d="M1072.18,1375.52c4.33-2.88,34.06,13.72,33.21,18.42c-0.85,4.7,16.79,52.78,16.79,52.78l39.67-27.93
			c0,0,6.62-11.08,7.91-12.77c2.45-3.2,6.23-6.11,9.17-5.25c2.94,0.86-2.97,4.08-3.4,4.73c-1.17,1.78,2.59,2.85,2.59,2.85
			s11.59-4.99,12.17-8.52c0.58-3.53,3.56-10.76,5.79-8.98c1.15,0.92,0.63,6.21,0.01,8.68c0.98-2.78,2.29-5.9,3.3-6.12
			c1.84-0.41,2.51,1.94,2.08,3.02c-0.43,1.08-4.47,12.89-5.47,14.17c-0.98,1.25-20.14,13.87-23,16.73c0,0-50.31,47.55-58.76,47.5
			c-3.36-0.02-11.91-14.22-21.05-28.11C1084.05,1432.84,1058.66,1384.51,1072.18,1375.52z"/>
		<path class="st14" d="M1115.41,1417.79l-37.2,0.23c0,0,1.21-30.36,2.59-44.77c1.68-17.48,5.33-39.85,7.39-39.16
			c5.79,1.93,13.46,5.96,17.58,12.95C1120.04,1371.19,1115.41,1417.79,1115.41,1417.79z"/>
		<path class="st2" d="M1100.17,1372.13c0.26,5.4,0.52,151.63,0.52,151.63c-70.18,25.96-104.64-4.22-104.64-4.22
			s11.96-101.52,10.66-115.62c-0.86-9.33-0.05-69.79,6.05-70.93c7.83-1.46,19.65-3.56,29.26-3.63c8.21-0.06,39.83,2.48,45.29,4.92
			C1087.31,1334.27,1099.07,1349.4,1100.17,1372.13z"/>
		<path class="st15" d="M1069.18,1221.12c0,0,25.62-6.97,28.93,14.87c0,0,21.03,2.54,12.69,23.04c0,0,18.35,15.06-0.78,38.92
			c0,0,0.08,26.51-29.78,21.47c0,0-6.42,7.94-19.41,2.83s-15.63-9.43-15.63-9.43s-25.44,1.61-27.81-21.56c0,0-15.52-7.61,0.23-26.18
			c0,0-8.18-30.52,18.88-33.05C1036.51,1232.03,1045.72,1204.79,1069.18,1221.12z"/>
		<path class="st11" d="M1041.73,1281.54c0.69,5.61-1.82,10.54-5.61,11c-3.79,0.47-7.43-3.7-8.12-9.31
			c-0.69-5.61,1.82-10.54,5.61-11C1037.4,1271.77,1041.04,1275.94,1041.73,1281.54z"/>
		<path class="st11" d="M1106.34,1282.69c-0.98,5.57-4.82,9.54-8.58,8.88s-6.02-5.71-5.04-11.28c0.98-5.57,4.82-9.54,8.58-8.88
			C1105.06,1272.08,1107.31,1277.12,1106.34,1282.69z"/>
		<path class="st11" d="M1073.83,1312.85c-0.09,0.39,0.02,15,0.08,22.73c0.02,2.88-1.99,5.37-4.81,5.96
			c-7.54,1.58-21.96,2.92-29.36-7.59c-0.67-0.96-0.88-2.17-0.58-3.3l8.59-32.88L1073.83,1312.85z"/>
		<path class="st10" d="M1073.81,1321.01c-8.05,2.02-17.17,0.05-26.03-8.23c-1.12-1.05-2.16-2.13-3.11-3.24l3.08-11.78l26.08,15.09
			C1073.78,1313.04,1073.79,1316.55,1073.81,1321.01z"/>
		<path class="st11" d="M1069.48,1238.73c0,0-11.94,0.44-21.03,9.92c-9.09,9.48-19.88,40.36,0.66,59.54s42.57,1.58,46.7-18.83
			C1099.92,1268.95,1096.73,1240.95,1069.48,1238.73z"/>
		<path class="st12" d="M1174.58,1409.17l1.55,1.68c0.8,0.86,2.11,0.96,2.93,0.21l33.2-30.13c0.82-0.75,0.85-2.05,0.05-2.92
			l-1.55-1.68c-0.8-0.86-2.11-0.96-2.93-0.21l-33.2,30.13C1173.81,1407,1173.79,1408.3,1174.58,1409.17z"/>
		<path class="st11" d="M1264.38,1680.76c0,0,4.55,9.26,13.04,10.18c8.49,0.92,29.51-10.25,34.12-9.76s6.52,2.82,6.52,2.82
			l-47.86,43.05l-12.83-14.52l-7.44-12.13L1264.38,1680.76z"/>
		<path class="st16" d="M1282.55,1690.54c0,0-7.39,16.22-15.9,18.87s-9.09,1.68-9.75,4.34c-0.66,2.66,11.25,16.39,11.25,16.39
			l53.92-48.32c3.57-3.55,2.87-7.99-2.28-7.46c-3.53,0.36-6.88,1.54-8.94,2.05C1304.52,1677.96,1282.55,1690.54,1282.55,1690.54z"/>
		<path class="st5" d="M996.05,1519.54c4.84-5.69,93.98-1.51,93.98-1.51s80.21-4.44,98.12,6.37c4.94,2.98,75.47,146.26,85.35,158.64
			l-22.68,21.84c0,0-58.81-70.19-73.01-87.17c-9.75-11.66-20.21-28.17-27.65-43.59c-29.91,10.96-77.95,21.53-139.6,11.41
			C982.79,1580.96,991.21,1525.23,996.05,1519.54z"/>
		<path class="st11" d="M1050.82,1685.48c0,0,2.47,28.36,7,36.22c4.53,7.85-0.24,21.21-0.48,23.04c-0.24,1.83-9.55,4.45-24.34,2.88
			s-14.56-4.97-13.36-10.47c1.19-5.5,9.07-12.57,9.55-17.8c0.48-5.24-4.53-24.09-4.53-24.09L1050.82,1685.48z"/>
		<path class="st16" d="M1031.16,1749.83c-15.24-1.62-13.35-9.08-12.12-14.74c0.77-3.54,5.14-7.72,7.75-11.68
			c1.36,1.08,3.58,2.99,10.19,4.94c6.87,2.02,16.29-1.98,22.29-4.49c2.14,7.93,2.24,18.05,2.04,19.59
			C1061.06,1745.33,1046.4,1751.44,1031.16,1749.83z"/>
		<path class="st17" d="M1039.57,1572.65c3.07,23.18,18.29,138.6,18.29,138.6l-35.32,4.36c0,0-43.43-150.64-41.2-173.68
			c1.18-12.2,5.66-20.72,9.61-26.04c3.75-5.04,10.56-6.65,16.16-3.8C1017.77,1517.52,1034.23,1532.34,1039.57,1572.65z"/>
		<path class="st0" d="M1083.26,1296.93l-23.83-3.36c0,0-0.73,9.13,9.71,10.91C1081.86,1306.65,1083.26,1296.93,1083.26,1296.93z"/>
		<path class="st15" d="M1092.09,1246.66c0,0-12.46-3.07-20.43-0.2c-7.97,2.86-29.63,29.02-34.33,26.77s-4.09-20.64-1.63-23.91
			s12.87-13.9,13.9-14.3c1.02-0.41,12.26-3.07,14.3-3.07c2.04,0,17.57,3.07,17.57,3.07L1092.09,1246.66z"/>
		<path class="st11" d="M925.38,1545.75c0.24-0.67,0.82-0.7,1.41-0.74c5.75-0.36,11.49-0.8,17.17-1.83
			c0.95-0.17,1.88-0.42,2.74-0.79c1.57-0.68,3.14-0.72,4.75-0.32c0.88,0.21,1.76,0.23,2.65,0.2c2.89-0.1,11.06-3.17,15.28-4.05
			c0.96-0.2,1.71-0.96,1.92-1.92c3.65-16.63,11.44-53.93,12.21-66.13c0.99-15.61,9.54-86.13,9.54-86.13l29.01,7.12
			c0,0-10.21,52.17-12.69,77.4c-1.92,19.48-20.01,61.24-25.71,73.27c-2.69,8.9-9.34,9.36-10.89,9.59c-0.88,0.14-1.68,0.6-2.24,1.29
			c-1.01,1.26-2.18,2.36-3.53,3.27c-1,0.68-1.76,1.54-2.4,2.54c-1.17,1.82-2.2,3.72-3.22,5.63c-0.68,1.26-1.42,1.68-2.49,1.42
			c-1.15-0.28-1.72-1.1-1.74-2.49c-0.03-2.06,0.57-3.93,1.54-5.72c0.92-1.67,0.81-2.62-0.36-4.1c-0.67-0.85-1.37-1.67-2.24-2.33
			c-0.89-0.67-1.81-1.18-2.97-0.98c-2.05,0.58-4.12,1.06-6.24,1.37l-1.73,0.41c-0.06,0.01-0.94,0.23-0.94,0.23
			c-0.15,0.04-3.2,0.47-4.24,0.51c-0.84,0.03-2.2,0.13-3.36,0.22c-1.05,0.08-3.29-0.4-3.36-0.39c-1.02,0.01-1.94-0.33-2.72-0.99
			c-0.32-0.27-0.63-0.58-0.49-1.06c0.13-0.44,0.47-0.64,0.91-0.73c0.69-0.15,4.24-0.69,4.2-0.84c-1.06,0.03-4.38,0.06-5.45,0.06
			c-1.43,0.01-2.68-0.47-3.7-1.49C925.6,1546.82,925.14,1546.42,925.38,1545.75z"/>
		<path class="st14" d="M976.33,1402.36l40.7,23.57c9.42-32.14,9.27-31.46,15.33-49.32c5.49-16.17-13.36-47.07-20.67-43.58
			C995.34,1340.85,976.33,1402.36,976.33,1402.36z"/>
	</g>
	<g class="st18">
		<g>
			<path class="st14" d="M2655.73,1824.28h-498.37V676.13h498.37V1824.28z M2168.49,1811.9h476.11V688.5h-476.11V1811.9z"/>
		</g>
	</g>
	<path class="st4" d="M2530.75,917.03h-261.58c-8.39,0-15.19-6.8-15.19-15.19v-36.91c0-8.39,6.8-15.19,15.19-15.19h261.58
		c8.39,0,15.19,6.8,15.19,15.19v36.91C2545.94,910.23,2539.14,917.03,2530.75,917.03z"/>
	<g>
		<path class="st17" d="M2290.5,887.51c-0.17,0.59-0.35,1.2-0.52,1.83c-0.17,0.64-0.35,1.36-0.54,2.17
			c-0.03-0.15-0.08-0.37-0.14-0.68c-0.31-1.64-0.56-2.71-0.73-3.23l-5.2-17.09h-3.58l7.96,25.05h3.39l7.93-25.05h-3.41
			L2290.5,887.51z"/>
		<polygon class="st17" points="2306.04,883.77 2314.92,883.77 2314.92,881.47 2306.04,881.47 2306.04,872.86 2318.14,872.86 
			2318.14,870.53 2302.46,870.53 2302.46,895.58 2318.57,895.58 2318.57,893.26 2306.04,893.26 		"/>
		<polygon class="st17" points="2319.86,872.67 2326.85,872.67 2326.85,895.58 2330.39,895.58 2330.39,872.67 2337.38,872.67 
			2337.38,870.53 2319.86,870.53 		"/>
		<polygon class="st17" points="2344.56,883.77 2353.44,883.77 2353.44,881.47 2344.56,881.47 2344.56,872.86 2356.66,872.86 
			2356.66,870.53 2340.98,870.53 2340.98,895.58 2357.09,895.58 2357.09,893.26 2344.56,893.26 		"/>
		<path class="st17" d="M2377.29,880.95c0.94-1.03,1.41-2.31,1.41-3.84c0-2.21-0.93-3.86-2.79-4.95c-1.86-1.09-4.68-1.63-8.46-1.63
			h-6.36v25.05h3.58v-11.84h1.39c0.46,0,0.95-0.01,1.48-0.02c0.53-0.01,1.28-0.03,2.24-0.05l5.25,11.91h3.86l-5.7-12.47
			C2374.98,882.69,2376.35,881.97,2377.29,880.95z M2367.71,881.47h-3.04v-8.73h3.04c2.42,0,4.22,0.36,5.4,1.08
			c1.19,0.72,1.78,1.82,1.78,3.28c0,1.45-0.6,2.55-1.8,3.27C2371.88,881.11,2370.09,881.47,2367.71,881.47z"/>
		<rect x="2383.74" y="870.53" class="st17" width="3.58" height="25.05"/>
		<path class="st17" d="M2408.72,885.5c0,1.33,0.02,2.39,0.07,3.18c0.05,0.79,0.12,1.56,0.21,2.3c-0.39-0.97-0.82-1.97-1.29-3
			c-0.47-1.03-0.98-2.11-1.53-3.24l-7.2-14.21h-5.2v25.05h3.13v-23.11c0.41,0.99,0.83,1.97,1.27,2.93c0.44,0.96,0.9,1.91,1.39,2.85
			l8.78,17.32h3.51v-25.05h-3.13V885.5z"/>
		<path class="st17" d="M2423.22,870.53l-7.56,25.05h3.51l2.02-7.38h8.78l2.02,7.38h3.77l-7.63-25.05H2423.22z M2421.98,885.85
			l3.63-13.11l3.65,13.11H2421.98z"/>
		<path class="st17" d="M2455.57,880.95c0.94-1.03,1.41-2.31,1.41-3.84c0-2.21-0.93-3.86-2.79-4.95c-1.86-1.09-4.68-1.63-8.46-1.63
			h-6.36v25.05h3.58v-11.84h1.39c0.46,0,0.95-0.01,1.48-0.02c0.53-0.01,1.28-0.03,2.24-0.05l5.25,11.91h3.86l-5.7-12.47
			C2453.27,882.69,2454.63,881.97,2455.57,880.95z M2445.99,881.47h-3.04v-8.73h3.04c2.42,0,4.22,0.36,5.4,1.08
			c1.19,0.72,1.78,1.82,1.78,3.28c0,1.45-0.6,2.55-1.8,3.27C2450.17,881.11,2448.38,881.47,2445.99,881.47z"/>
		<rect x="2462.03" y="870.53" class="st17" width="3.58" height="25.05"/>
		<path class="st17" d="M2477.07,870.53l-7.56,25.05h3.51l2.03-7.38h8.78l2.02,7.38h3.77l-7.63-25.05H2477.07z M2475.82,885.85
			l3.63-13.11l3.65,13.11H2475.82z"/>
		<path class="st17" d="M2508.22,870.53v14.97c0,1.33,0.02,2.39,0.07,3.18c0.05,0.79,0.12,1.56,0.21,2.3
			c-0.39-0.97-0.82-1.97-1.29-3c-0.47-1.03-0.98-2.11-1.53-3.24l-7.2-14.21h-5.2v25.05h3.13v-23.11c0.41,0.99,0.83,1.97,1.27,2.93
			c0.44,0.96,0.9,1.91,1.39,2.85l8.78,17.32h3.51v-25.05H2508.22z"/>
	</g>
	<g>
		<path class="st7" d="M2916.07,1509.49c1.6-13.96,3.49-28.24,9.99-40.7c7.9-15.14,21.76-26.06,33.87-38.09
			c22.63-22.48,40.05-50.18,50.53-80.33c8.1-23.32,12.15-48.16,23.3-70.18c6.81-13.44,16.08-25.46,23.81-38.39
			c18.27-30.57,28.24-66.7,53-92.28c4.72,31.04-4.72,63.97-25.17,87.77c-6.1,7.1-13.17,13.49-17.82,21.62
			c-8.44,14.75-7.69,32.75-8.7,49.73c-1.89,31.9-10.92,63.35-26.22,91.38c-16.26,29.78-39.71,56.28-48.42,89.08
			c-6.53,24.58-4.63,52.16-18.51,73.45c-1.5,2.31-3.23,4.63-3.6,7.36c-0.21,1.53,0.03,3.09,0.27,4.62c0.31,1.98,0.62,3.96,0.92,5.94
			c3.13,20.13,6.36,45.74-10.95,60.78c-12,10.42-27.42,10.64-36.01-3.23c-8.65-13.97-7.86-34.4-7.2-50.11
			C2910.27,1561.73,2913.1,1535.5,2916.07,1509.49z"/>
		<path class="st9" d="M2884.95,1493.27c6.75-23.29,17.22-45.46,22.48-69.13c5.1-22.96,5.17-46.7,5.21-70.22
			c0.05-25.77,0.09-51.55,0.14-77.32c0.03-16.05,0.07-32.18,2.74-48c5.74-34.04,23.48-65.5,26.51-99.9
			c1.31-14.87-0.17-29.91,1.48-44.74c0.94-8.48,3.13-17.13,7.06-24.64c4.23-8.08,15.89-7.71,19.7,0.57
			c8.58,18.63,14,38.77,10.51,58.72c-2.1,11.97-7.29,23.12-11.18,34.63c-17.29,51.26-8.21,108.03-21.6,160.44
			c-4.04,15.82-10.15,31.33-10.88,47.65c-1.74,39.05,27.39,74.75,24.67,113.75c-2.23,31.97-25.25,58.4-34.93,88.95
			c-5.42,17.1-6.6,35.35-12.4,52.33c-4.51,13.19-14.98,29.19-31.22,25.17c-15.41-3.82-10.74-16.4-10.04-28.42
			C2875.58,1572.43,2873.43,1532.98,2884.95,1493.27z"/>
		<path class="st7" d="M2849.63,1514.58c0.69-12.1,2.75-24.27,1.07-36.28c-1.42-10.14-5.44-19.7-8.31-29.52
			c-5.38-18.41-6.7-37.73-7.98-56.87c-2.34-34.79-4.68-69.59-7.01-104.39c-3.63-54.09-7.29-108.33-17.34-161.6
			c-2.79-14.79-5.93-30.81,0.74-44.31c1.4-2.84,4.16-5.86,7.19-4.91c2.15,0.68,3.21,3.05,3.98,5.17
			c22.04,60.1,30.32,124.78,54.92,183.87c5.89,14.15,12.75,28.08,15.8,43.11c3.65,18.05,1.61,36.69,1.12,55.1
			c-0.71,26.41,1.83,53.01,9.09,78.41c3.8,13.29,8.89,26.27,10.97,39.93c2.59,17.04,0.38,34.38-1.27,51.54
			c-3.17,32.97-4.27,66.15-3.29,99.26c0.58,19.47-15.86,18.94-26.73,6.97c-7.6-8.37-7.52-17.56-10.12-27.97
			C2863.93,1577.9,2847.52,1551.63,2849.63,1514.58z"/>
		<path class="st9" d="M2952.24,1567.48c14.56-23.33,43.52-36.57,52.84-62.46c2.37-6.59,3.3-13.67,6.2-20.05
			c6.43-14.15,21.02-22.14,35.36-28.64c1.99-0.9,4.25,0.54,4.28,2.73l0,0c0.04,3.48-1.61,6.8-4.5,8.74
			c-11.05,7.42-19.45,18.77-23.21,31.57c-4.44,15.17-2.54,31.81-8.06,46.62c-4.63,12.43-14.16,22.59-18.64,35.08
			c-4.1,11.42-3.68,23.9-5.62,35.88s-7.27,24.69-18.28,29.74C2932.8,1665,2942.84,1582.55,2952.24,1567.48z"/>
		<path class="st7" d="M2786.7,1559.59c0.61,11.29-1.13,23.12,3.27,33.53c2.82,6.66,7.9,12.04,12.06,17.95
			c14.63,20.74,19.91,50.11,42.41,61.8c1.48,0.77,3.14,1.46,4.79,1.16c2.31-0.43,3.82-2.65,4.75-4.81
			c5.53-12.85-0.64-27.35-4.3-40.86c-0.64-2.36-1.17-5-0.04-7.17c1.24-2.39,4.07-3.42,6-5.3c3.85-3.74,3.5-9.93,2.74-15.25
			c-1.89-13.29-4.56-26.46-7.99-39.44c-1.94-7.36-4.19-14.78-8.42-21.1c-4.66-6.96-11.43-12.15-17.76-17.62
			c-28.01-24.15-49.44-55.87-61.42-90.89c-2.59-7.58-4.91-15.59-10.27-21.53c-5.37-5.94-14.95-9.01-21.5-4.41
			c-4.66,3.27,14.38,33.98,16.6,37.66c6.34,10.52,6.42,19.67,10,31.35C2766.39,1503.3,2785.05,1528.93,2786.7,1559.59z"/>
		<path class="st9" d="M2812.61,1572.67c-4.15-10.77-8.34-21.69-9.7-33.16c-1.51-12.75,0.53-25.78-1.64-38.43
			c-2.78-16.27-12.25-30.58-16.92-46.41c-3.38-11.43-4.2-23.43-6.22-35.18c-5.78-33.59-21.54-66.42-16.97-100.19
			c0.99-7.35,4.32-15.91,11.61-17.15c6.6-1.13,12.61,4.92,14.31,11.4c1.71,6.49,0.42,13.33-0.06,20.02
			c-1.34,18.67,3.97,37.74,14.75,53.03c10.35,14.69,25.39,25.75,34.7,41.12c11.43,18.85,12.96,41.85,18.77,63.12
			c11.57,42.3,40.66,79.23,45.92,122.77c2.09,17.33-2,38.38-17.99,45.29C2836.92,1678.87,2823.05,1599.77,2812.61,1572.67z"/>
		<path class="st5" d="M2889.66,1626.43l7.4,0.01l98.73,0.11c7.26,0.01,12.6,6.8,10.92,13.88l-38.87,163.09
			c-1.21,5.07-5.74,8.65-10.94,8.64l-60.04-0.07l-7.4-0.01l-60.04-0.07c-5.2-0.01-9.72-3.59-10.92-8.67l-38.5-163.18
			c-1.67-7.08,3.69-13.86,10.95-13.85L2889.66,1626.43z"/>
	</g>
	<g>
		<path class="st19" d="M2479.58,992.28c0,0-23.69,28.15-35.86,76.48c-12.17,48.33,17.93,113.45,17.93,113.45l-19.89,42
			c0,0-9.95,98.44-8.43,117.31c1.52,18.87,8.43,257.22,8.43,257.22l40.53,9.07c0,0-11.54-248.03-10.22-252.82
			c1.32-4.79,24.79-318.04,24.79-318.04L2479.58,992.28z"/>
		<path class="st11" d="M2431.6,1810.1c6.02-4.44,10.88-7.37,30.11-16.69c1.25-0.61,5.82-3.52,7.46-4.53
			c4.17-2.56,8.37-6.58,11.98-10.61c3.45-3.84,5.09-16.17,5.86-26c-1.98-21.94-33.77-373.87-40.48-411.96
			c-6.92-39.33,3.62-99.31,3.62-99.31l24.55-9.26l46.6,161.51l-3.67,122.94c0,0,10.96,35.44,12.34,56.61
			c1.38,21.18-15.84,193.06-15.84,193.06l0,0c0,6.15,0.24,11.71,0.92,15.18c1.26,6.43,8.31,19.66,5.08,25.71
			c-3.23,6.05-6.92,7.56-6.92,7.56l-83.73,1.35C2424.91,1815.75,2427.92,1812.81,2431.6,1810.1z"/>
		<path class="st11" d="M2558.67,1228.4c0,0,29.08,43.86,36,80.16c6.92,36.3-5.08,147.86,8.24,195.43
			c7.21,25.75,34.53,65.52,38.69,98.79c4.15,33.27,18.61,129.32,18.61,129.32l0,0c2.19,10.08,5.61,22.55,10.06,28.35
			c2.72,3.55,7.69,8.04,10.96,14.45c5.08,9.98,2.27,24.85-1.48,33.03c-1.92,4.2,0.13,4.19-4.24,5.54
			c-12.97,4.01-26.76-2.74-32.29-15.19c-3.09-6.95-5.79-16.23-6.34-27.92c-0.58-12.39-2.51-22.23-4.58-29.51l0,0l-92.94-227.99
			l-67.29-196.75l-17.24-101.33L2558.67,1228.4z"/>
		<path class="st5" d="M2640.69,1791.74c20.12,3.68,33.5-8.12,40.47-16.95c5.11,10,7.61,24.93,3.85,33.14
			c-3.31,7.24-12.99,7.03-20.61,7.31c-8.06,0.3-14.29-4.19-18.29-11.22C2644.23,1800.74,2642.31,1796.65,2640.69,1791.74z"/>
		<path class="st5" d="M2469.18,1788.88c22.14,5.7,38.51,1.82,47.67-1.88c2.36,6.71,5.49,15.12,3.83,19.98
			c-2.03,5.94-4.93,7.28-7.48,7.35c-20.23,0.53-74.09,1.26-89.51,1.46c-2.15,0.03-3.34-2.49-1.96-4.15
			C2425.55,1807.06,2467.53,1789.89,2469.18,1788.88z"/>
		<path class="st5" d="M2539.82,1513.32c-1.74,0.12-3.49,0.23-5.25,0.34c-0.09,0-0.18,0.01-0.27,0.02c-1.72,0.1-3.46,0.2-5.2,0.29
			c-0.11,0.01-0.21,0.01-0.32,0.02c-1.74,0.09-3.49,0.17-5.23,0.25c-0.09,0-0.18,0.01-0.27,0.01c-1.78,0.08-3.56,0.14-5.35,0.2
			c-19.85,0.65-44.36,0.4-60.09-2.27c-8.02-80.28-11-153.54-13.97-169.76c-7.2-39.33,6.27-101.4,6.27-101.4l6.43-1.15l-4.07-22.99
			l107.99,13.61c0,0,30.23,43.86,37.43,80.16c7.2,36.3-5.28,147.86,8.56,195.43C2606.5,1506.08,2575.67,1510.88,2539.82,1513.32z"/>
		<path class="st20" d="M2456.96,1068.76c-1.4,6.19-15.97,42.3-17.61,48.86c-19.38-2.86-76.38-20.09-79-21.07l-9.22,23
			c1.53,0.65,3.14,1.44,4.85,2.41c13.93,7.88,98.2,52.39,114.21,43.06c5.26-3.07,18.42-71.16,24.29-91.83
			C2482.84,1067.45,2468.34,1075.2,2456.96,1068.76z"/>
		<path class="st11" d="M2351.13,1119.55l9.22-23c0.25,0.09,0.97,0.33,2.1,0.68c-1.13-0.35-1.85-0.59-2.1-0.68
			c-2.63-0.98-17.21-34.59-20.57-31.69c-3.37,2.91,7.86,18.98,3.51,21.42c-4.35,2.45-45.88-15.2-45.74-11.55
			c0.27,6.83,25.13,11.87,24.73,15.04c-0.4,3.17-25.7-7.93-28.08-3.07c-2.38,4.86,24.64,8.06,25.43,10.67
			c0.78,2.61-25.51,0.8-23.46,6.33c1.12,3,23.37,0.97,22.84,4.58c-0.53,3.61-17.14,8.17-15.56,11.51s13.31-5.97,22.4-3.96
			c7.97,1.76,14.43-0.92,25.3,3.72C2351.14,1119.56,2351.14,1119.55,2351.13,1119.55z"/>
		<path class="st15" d="M2453.39,919.21c-4.24-19.27-8.39-38.66,2.78-59.83c9.04-17.13,24.68-26.99,42.77-29.13
			c51.26-6.08,40.31,41.77,111.96,52.13c22.26,3.22,42.95,6.31,61.54,17.39c33.56,19.99,46.23,52.07,23.97,104.32
			c-54.51,127.94-184.93,16.76-204.82-5.87C2471.85,975.77,2456.12,931.62,2453.39,919.21z"/>
		<path class="st5" d="M2534.07,980.03c0,0,25.89,2.94,41.37,19.78c15.48,16.84-25.03,152.23-27.84,173.66
			c-2.82,21.43,26.92,80.76,26.92,80.76s-101.08,20.09-127.36,2.74c0,0-2.31-165.68,0.51-180.99c2.82-15.31,26.28-77.58,31.91-83.7
			C2485.21,986.16,2534.07,980.03,2534.07,980.03z"/>
		<path class="st11" d="M2521.05,927.84c0,0,0.2,1.15,0.57,3.11c1.75,9.39,7.74,39.69,4.06,55.21c-2.71,11.4-9.84,37.25-33.19,33.23
			c-6.95-1.2,5.88-30.33,5.26-33.41c-1.18-5.91-2.78-13.96-4.42-22.23c-0.92-4.66-1.86-9.39-2.74-13.83
			c-2.5-12.62-4.54-22.94-4.54-22.94L2521.05,927.84z"/>
		<path class="st2" d="M2521.61,930.95c-0.36-1.96-0.57-3.11-0.57-3.11l-35-0.87c0,0,2.04,10.32,4.54,22.94
			c0.87,4.42,1.8,9.11,2.72,13.75c5.4-0.79,11.05-3.42,16.71-8.36c6.17-5.39,10.22-11.87,12.66-18.79
			C2522.24,934.31,2521.88,932.41,2521.61,930.95z"/>
		<path class="st11" d="M2499.99,844.66c0,0,14.27,1.98,24.61,15.33c10.34,13.35,21.49,54.62-4.2,77.06
			c-25.69,22.44-51.07-2.96-54.83-29.89C2461.81,880.22,2462.57,843.69,2499.99,844.66z"/>
		<path class="st11" d="M2458.09,900.51c1.62,6.49,5.87,10.88,9.5,9.8c3.63-1.08,5.26-7.22,3.63-13.72
			c-1.62-6.49-5.87-10.88-9.5-9.8C2458.09,887.87,2456.46,894.01,2458.09,900.51z"/>
		<path class="st15" d="M2484.14,844.78c0,0,33.54,38.51,49.31,40.32c15.77,1.81,17.84,22.67,17.84,22.67s-5.64-48.06-21.24-57.33
			C2514.43,841.18,2484.14,844.78,2484.14,844.78z"/>
		<path class="st11" d="M2528.29,894.45c-1.28,6.97,1.3,13.36,5.76,14.28c4.46,0.91,9.12-3.99,10.4-10.96
			c1.28-6.97-1.3-13.36-5.76-14.28C2534.23,882.57,2529.58,887.48,2528.29,894.45z"/>
		<path class="st0" d="M2481.63,920.5l24.39-0.13c0,0-0.51,9.27-11.24,9.63C2481.71,930.45,2481.63,920.5,2481.63,920.5z"/>
		<path class="st19" d="M2601.99,1307.74c-10.17-47.09-46.46-83.17-48.84-131.71c2.1-20.81,52.18-143.9,35.89-163.81
			c-13.29-16.25-37.63-34.21-53.17-32.17c-14.1,19.47-34.93,60.45-37.76,93.97c-4.66,55.34-7.49,440.75-0.19,530.42
			c22.02,1.04,147.46-4.36,147.44-4.56C2637.96,1540.16,2609.19,1344.04,2601.99,1307.74z"/>
		<g>
			<path class="st21" d="M2528.77,1089.9l-108.39,15.86c-3.26,0.48-5.51,3.5-5.04,6.76l21.15,144.61c0.48,3.26,3.51,5.51,6.76,5.04
				l108.39-15.86c3.26-0.48,5.51-3.5,5.04-6.76l-21.16-144.6C2535.06,1091.68,2532.03,1089.42,2528.77,1089.9z"/>
			<path class="st12" d="M2447.93,1096.94c-0.1-0.66,0.36-1.27,1.02-1.37l45.21-6.61c0.66-0.1,1.27,0.36,1.37,1.02l0.69,4.7
				l-47.6,6.96L2447.93,1096.94z"/>
			<path class="st12" d="M2464.63,1094.72c0.58,3.94,4.23,6.66,8.17,6.09c3.94-0.58,6.66-4.24,6.09-8.17
				c-0.58-3.94-4.23-6.66-8.17-6.09C2466.78,1087.12,2464.05,1090.78,2464.63,1094.72z M2467.19,1094.34
				c-0.37-2.53,1.38-4.87,3.9-5.24c2.53-0.37,4.87,1.38,5.24,3.9s-1.38,4.87-3.9,5.24S2467.56,1096.87,2467.19,1094.34z"/>
			<path class="st15" d="M2448.5,1095.73c-0.4,0.24-0.64,0.71-0.57,1.21l0.69,4.7l47.6-6.96c0.48,3.26-1.78,6.28-5.03,6.76
				l-35.81,5.24c-3.26,0.48-6.28-1.78-6.76-5.03l-0.69-4.7C2447.85,1096.44,2448.09,1095.97,2448.5,1095.73z"/>
		</g>
		<path class="st11" d="M2478.85,1190.03c-3.13,0.66-6.01,1.24-8.57,1.7c0,0-12.78-7.24-17.95-9.55c-5.17-2.3-19.07-4.82-22.14-5.22
			c-3.07-0.4-2.02,2.97,0.62,4.14c2.64,1.18,9.47,4.39,11.4,8.33c0,0-5.54,0.61-8.48-0.7s-6.97-4.07-7.04-5.51s-0.73-4.89-1.69-4.71
			c-0.25,0.05-0.57,1.18-0.9,2.37c-0.31,1.13-0.64,2.29-0.92,3.42c-0.49,2.04-1.06,5.03-1.28,6.37c-0.5,3.06,1.37,11.51,1.63,14.5
			c0.48,5.48,2.04,7.91,4.93,9.3c4.66,1.62,9.59,2.66,16.88,3.41c13.36,1.38,25.64-2.46,31-3.07c1.01-0.11,4.86-0.51,10.45-1.07
			L2478.85,1190.03z"/>
		<path class="st20" d="M2596.98,1024.88c-10.9-25.39-29.95-33.06-29.95-33.06c-3.52-2.28-6.79,5.59-12.57,13.51
			c-21.68,29.67-20.83,53.86-10.64,102.38l11.5,54.86c0,0-56.8,23.84-85.19,29.04c-0.03,6.87,0.3,15.04,1.5,23.9
			c1.57-0.31,2.92-0.56,3.99-0.68c5.36-0.6,90.87-9.08,90.87-9.08s34-4.89,36.25-10.74c0.93-2.42,1.33-14.52,1.46-27.86l0.06,0
			C2604.28,1167.15,2607.34,1049.01,2596.98,1024.88z"/>
	</g>
	<g>
		<path class="st5" d="M2218.37,1317.68h-8.81c-2.42,0-4.39-1.96-4.39-4.39v-85.63c0-2.42,1.96-4.39,4.39-4.39h12.21v6.8h-9.8v80.8
			h6.4c1.88,0,3.4,1.52,3.4,3.4l0,0C2221.77,1316.16,2220.25,1317.68,2218.37,1317.68z"/>
	</g>
	<path class="st5" d="M1640.47,393.46h-18.48v-46.79c-2.01-0.63-4.04-1.26-6.06-1.88v48.67h-346.7V266.59
		c-2.04-0.34-4.06-0.68-6.06-1.02v127.88h-22.09l-23.05,63.23h445.49L1640.47,393.46z"/>
	<path class="st5" d="M1069.11,393.46h-18.48V239.99c-2.03-0.12-4.05-0.24-6.06-0.35v153.82h-346.7v-112.1
		c-2.05,0.92-4.07,1.84-6.06,2.78v109.33h-22.09l-23.05,63.23h445.49L1069.11,393.46z"/>
	<rect x="437.28" y="642.07" class="st4" width="272.3" height="308"/>
	<rect x="437.28" y="979.78" class="st4" width="272.3" height="7.29"/>
	<rect x="437.28" y="1012.97" class="st4" width="272.3" height="7.29"/>
	<rect x="437.28" y="1046.17" class="st4" width="272.3" height="7.29"/>
	<g>
		<path class="st22" d="M522.84,820.41c0,0,11.97,19.99,12.3,23.64c0.3,3.27-4.13,18.38-7.34,26.61c-0.61,1.56-0.11,3.33,1.24,4.33
			l24.55,18.3l15.16-4.84l0,0c-1.1-3.44-4.42-5.67-8.03-5.39l-7.71,0.6c0,0-9.67-6.73-9.69-10.06c-0.02-3.33,1.06-9.11,1.06-9.11
			l7.4-11.2c2.58-3.91,5.52-8.65,7.87-13.61c4-8.42,3.59-18.28-0.98-26.4l-6.04-10.73L522.84,820.41z"/>
		<path class="st22" d="M629.48,770.39l10.59,20.46c0,0,20.33,4.23,22.96,6.33c4.19,3.33,5.88,8.64,5.88,8.64s1.92,8.76,0.78,10.98
			c-0.18,0.35-0.55,0.67-1.05,0.98c-3.93,2.42-9.01-0.39-9.16-5c-0.07-2.13-0.19-4.07-0.42-4.79c-0.62-1.95-1.57-1.84-1.57-1.84
			l-23.25-3.04l-14.11-19.78L629.48,770.39z"/>
		<path class="st22" d="M594.2,741.24l-27.81,19.85l-53.79,20.69c-5.94,2.29-10.58,7.05-12.75,13.04c-2.53,7-5.35,16.95-5.58,26.9
			c-0.42,18.3-3.78,38.17-12.98,41.74l-5.87,1.87c-1.58,0.5-2.68,1.95-2.73,3.61c-0.13,3.55-0.47,9.48-1.33,11.47
			c-1.26,2.91-8.89,24.14-8.26,26.13c0.64,1.99,17.33,10.13,17.33,10.13l11.09-3.54l0-0.02c-0.56-3.77-3.58-6.68-7.36-7.15
			c-4.42-0.55-9.67-1.71-10.56-4.13l10.49-23.4c0,0,23.26-8.27,26.41-13.45c3.15-5.18,16.21-43.4,26.83-47.41
			c10.62-4.02,56.04-8.3,56.04-8.3l27.93,52.55l13.22,5.62l14.75-4.71v0c-1.04-3.25-3.83-5.62-7.21-6.12l-8.61,0.31l0,0
			c-6.04-6.45-11.51-17.33-14.06-25.8l-9.3-30.96c0,0,20.79-21.88,21.89-29.55c1.1-7.66,0.49-18.74,0.49-18.74
			s16.09-18.29,18.63-20.78c2.55-2.48,7.42-4.88,10.64-5.28c3.21-0.4,15.09,0.82,17.13-1.3c2.04-2.11,4.45-13.53,3.71-15.18
			c-0.73-1.65-21.69-1.22-21.69-1.22l-3.89-6.28l-17.75-0.4c-5-0.11-9.78,2.07-12.98,5.92l-5.8,6.98
			C620.49,714.36,593.34,741.82,594.2,741.24z"/>
		<path class="st22" d="M501.32,793.77c0,0-17.7-7.35-11.38-25.81c6.32-18.46,17.65-22.71,17.65-22.71s-16.53,0.74-25.14,17.9
			c-8.62,17.16,1.01,32.1,16.18,42.29C513.79,815.63,501.32,793.77,501.32,793.77z"/>
		<path class="st23" d="M629.83,707.37c0,0-0.51,21.61,0.95,28.97c1.46,7.36,11.49,7.96,17.97,7.23c6.48-0.73-0.68-42.72-7.15-42.67
			C635.14,700.95,629.83,707.37,629.83,707.37z"/>
	</g>
	<g>
		
			<rect x="1311.76" y="766.7" transform="matrix(-1 -1.224647e-16 1.224647e-16 -1 2877.8096 1726.9716)" class="st5" width="254.28" height="193.57"/>
		
			<rect x="1325.07" y="782.56" transform="matrix(-1 -1.224647e-16 1.224647e-16 -1 2877.8096 1726.9716)" class="st4" width="227.67" height="161.86"/>
		
			<rect x="1350.6" y="806.71" transform="matrix(-1 -1.224647e-16 1.224647e-16 -1 2877.8096 1670.1914)" class="st3" width="176.61" height="56.78"/>
		
			<rect x="1358.17" y="891.99" transform="matrix(-1 -1.224647e-16 1.224647e-16 -1 2877.8096 1787.0015)" class="st3" width="161.47" height="3.02"/>
		
			<rect x="1358.17" y="904.24" transform="matrix(-1 -1.224647e-16 1.224647e-16 -1 2877.8096 1811.5005)" class="st3" width="161.47" height="3.02"/>
		
			<rect x="1358.17" y="916.49" transform="matrix(-1 -1.224647e-16 1.224647e-16 -1 2877.8096 1835.9995)" class="st3" width="161.47" height="3.02"/>
		
			<rect x="1378.07" y="928.74" transform="matrix(-1 -1.224647e-16 1.224647e-16 -1 2877.8096 1860.498)" class="st3" width="121.66" height="3.02"/>
	</g>
	<g>
		<g>
			<path class="st6" d="M877.64,1636.46h-20.69c-4.39,0-7.96-3.57-7.96-7.96v-20.69c0-4.39,3.57-7.96,7.96-7.96h20.69
				c4.39,0,7.96,3.57,7.96,7.96v20.69C885.6,1632.89,882.03,1636.46,877.64,1636.46z M856.95,1603.9c-2.16,0-3.91,1.75-3.91,3.91
				v20.69c0,2.16,1.75,3.91,3.91,3.91h20.69c2.16,0,3.91-1.75,3.91-3.91v-20.69c0-2.16-1.75-3.91-3.91-3.91H856.95z"/>
		</g>
		<path class="st14" d="M802.51,1799.96c0.82,6.4,6.27,11.2,12.73,11.2h52.05h52.06c6.45,0,11.9-4.8,12.73-11.2l10.94-85.3h-75.72
			h-75.72L802.51,1799.96z"/>
		<path class="st2" d="M945.49,1705.75h-3.62l-9.79-76.4c-0.82-6.4-6.27-11.2-12.73-11.2h-52.05h-52.05c-6.46,0-11.9,4.8-12.73,11.2
			l-9.79,76.4h-2.13c-3.69,0-6.68,2.99-6.68,6.68l0,0c0,3.69,2.99,6.68,6.68,6.68h154.9c3.69,0,6.68-2.99,6.68-6.68l0,0
			C952.17,1708.74,949.18,1705.75,945.49,1705.75z"/>
		<path class="st6" d="M920.64,1646.42c-0.73-5.69-5.58-9.96-11.32-9.96h-41.29h-41.29c-5.74,0-10.59,4.26-11.32,9.96l-8.73,68.1
			c-0.01,0.09-0.01,0.17,0,0.26l8.73,68.1c0.73,5.69,5.58,9.96,11.32,9.96h41.29h41.29c5.74,0,10.59-4.26,11.32-9.96l8.73-68.1
			c0.01-0.08,0.01-0.17,0-0.26L920.64,1646.42z"/>
		<path class="st24" d="M921.58,1653.75l-0.41-3.18h-10.72v-12.97h-3.18v12.97h-17.61v-12.97h-3.18v12.97h-17.61v-12.97h-3.18v12.97
			h-17.6v-12.97h-3.18v12.97h-17.61v-12.97h-3.18v12.97h-9.23l-0.41,3.18h9.64v17.61h-11.9l-0.41,3.18h12.3v17.61h-14.56l-0.41,3.18
			h14.97v17.61h-17.23l-0.21,1.6c-0.01,0.09-0.01,0.17,0,0.26l0.17,1.32h17.26v17.61h-15.01l0.41,3.18h14.6v17.61h-12.34l0.41,3.18
			h11.93v17.61h-9.68l0.41,3.18h9.27v14.08c0.84,0.2,1.72,0.31,2.62,0.31h0.56v-14.39h17.61v14.39h3.18v-14.39h17.6v14.39h2.33h0.85
			v-14.39h17.61v14.39h3.18v-14.39h17.61v14.39h2.05c0.38,0,0.76-0.02,1.13-0.06v-14.33h10.75l0.41-3.18h-11.16v-17.61h13.42
			l0.41-3.18h-13.83v-17.61h16.08l0.41-3.18h-16.49v-17.61h18.75l0.17-1.32c0.01-0.08,0.01-0.17,0-0.26l-0.21-1.6h-18.71v-17.61
			h16.45l-0.41-3.18h-16.05v-17.61h13.79l-0.41-3.18h-13.38v-17.61H921.58z M844.92,1775.28h-17.61v-17.61h17.61V1775.28z
			 M844.92,1754.49h-17.61v-17.61h17.61V1754.49z M844.92,1733.71h-17.61v-17.61h17.61V1733.71z M844.92,1712.92h-17.61v-17.61
			h17.61V1712.92z M844.92,1692.14h-17.61v-17.61h17.61V1692.14z M844.92,1671.35h-17.61v-17.61h17.61V1671.35z M865.7,1775.28
			h-17.6v-17.61h17.6V1775.28z M865.7,1754.49h-17.6v-17.61h17.6V1754.49z M865.7,1733.71h-17.6v-17.61h17.6V1733.71z
			 M865.7,1712.92h-17.6v-17.61h17.6V1712.92z M865.7,1692.14h-17.6v-17.61h17.6V1692.14z M865.7,1671.35h-17.6v-17.61h17.6V1671.35
			z M886.49,1775.28h-17.61v-17.61h17.61V1775.28z M886.49,1754.49h-17.61v-17.61h17.61V1754.49z M886.49,1733.71h-17.61v-17.61
			h17.61V1733.71z M886.49,1712.92h-17.61v-17.61h17.61V1712.92z M886.49,1692.14h-17.61v-17.61h17.61V1692.14z M886.49,1671.35
			h-17.61v-17.61h17.61V1671.35z M907.27,1775.28h-17.61v-17.61h17.61V1775.28z M907.27,1754.49h-17.61v-17.61h17.61V1754.49z
			 M907.27,1733.71h-17.61v-17.61h17.61V1733.71z M907.27,1712.92h-17.61v-17.61h17.61V1712.92z M907.27,1692.14h-17.61v-17.61
			h17.61V1692.14z M907.27,1671.35h-17.61v-17.61h17.61V1671.35z"/>
		<g>
			<path class="st25" d="M909.32,1795.07h-82.57c-6.84,0-12.66-5.12-13.53-11.9l-8.73-68.1c-0.03-0.27-0.03-0.55,0-0.82l8.73-68.11
				c0.87-6.79,6.69-11.9,13.53-11.9h82.57c6.84,0,12.66,5.12,13.53,11.9l8.73,68.1c0.04,0.27,0.04,0.56,0,0.84l-8.73,68.09
				C921.98,1789.96,916.16,1795.07,909.32,1795.07z M808.93,1714.66l8.71,67.95c0.59,4.57,4.5,8.01,9.11,8.01h82.57
				c4.61,0,8.52-3.45,9.11-8.01l8.71-67.95l-8.71-67.95c-0.59-4.57-4.5-8.01-9.11-8.01h-82.57c-4.61,0-8.52,3.45-9.11,8.02
				L808.93,1714.66z M927.16,1714.81c0,0,0,0.01,0,0.01L927.16,1714.81z M927.16,1714.5c0,0,0,0.01,0,0.01L927.16,1714.5z"/>
		</g>
	</g>
	<path class="st17" d="M698.97,1537.94c7.64-12.54,26.82-30.75,50.92-17.83c22.98,12.32,16.92,51.58,6.81,75.62
		c-10.11,24.04-74.9,164.82-78.69,184.7l-39.82-3.81c0,0,19.07-114.77,23.7-142.51C666.35,1607.42,685.75,1559.65,698.97,1537.94z"
		/>
	<path class="st2" d="M699.19,1552.75c-1.45-3.89-3.1-7.76-5.2-11.32c-1.95-3.3-4.6-6.25-8.36-7.71c-4.32-1.67-8.71-3.14-13.04-4.77
		c-5.74-2.15-11.28-4.32-12.64-11.56c-0.73-3.88-1.98-7.38-0.64-11.53c1.67-5.17,2.89-10.61,3.4-16.02
		c0.72-7.64-0.96-15.2-2.01-22.77c-0.34-2.45-0.29-5.37,0.78-7.48c1.46-2.9,3.91-5.36,6.2-7.77c2.8-2.95,3.69-6.58,4.29-10.36
		c0.14-0.89-0.21-1.93-0.54-2.83c-1.49-4.01-4.94-4.89-8.67-5.25c-2.14-0.21-4.13-0.57-5.32-2.76c-0.36-0.66-1.38-1.16-2.18-1.33
		c-2.12-0.44-4.29-0.93-6.42-0.88c-2.22,0.06-2.57-1.27-3.01-2.84c-0.54-1.94-1.13-3.86-1.7-5.79c-0.56,0-0.51,0-1.06,0.01
		c-0.77,2.85-1.74,5.66-2.21,8.56c-0.37,2.27-1.65,3.87-4.14,2.06c-3.23-2.34-6.19-5.04-9.36-7.45c-2.28-1.73-3.27-1.32-4.12,1.53
		c-1.11,3.73,0.3,7.29,0.9,10.88c1.04,6.21,3.69,12.35,2.7,18.66c-0.96,6.13-1.3,12.21-1.16,18.35c0.05,2.12-0.8,3.04-2.62,3.88
		c-8.6,3.97-17.23,7.92-25.67,12.23c-8.01,4.09-15.11,9.59-21.65,15.73c-5.48,5.14-10.14,10.99-13.6,17.71
		c-3.34,6.48-5.64,13.35-6.78,20.55c-0.64,4.01-1.2,8.06-1.37,12.12c-0.23,5.45-0.08,10.92-0.04,16.39c0,0.12,0,0.23,0,0.35
		c0.01,2.65,0.77,20.12,19.56,20.15c16.04,0.01,32.07,0,48.11-0.01c0.01,0,0.02,0,0.03,0c8.45-0.01-1.09-8.68-1.09-8.68l0,0
		c-0.36-0.25-0.71-0.54-1.05-0.87c-0.87-0.83-1.75-1.85-2.83-2.21c-1.47-0.5-3.13-0.53-4.71-0.64c-1.99-0.13-2.27-0.65-1.58-2.57
		c1.71-4.7,3.5-9.38,4.88-14.17c0.43-1.5-0.07-3.43-0.62-5c-0.55-1.58-0.62-2.81,0.35-4.22c1.2-1.73,2.03-3.72,3.35-5.33
		c0.71-0.87,2.08-1.54,3.19-1.59c0.56-0.02,1.54,1.46,1.73,2.39c1,4.84,1.47,9.8,2.76,14.55c1.23,4.52,3.15,8.85,4.92,13.21
		c0.47,1.17,1,2.31,1.57,3.5c1.57,3.28,3.9,6.14,6.78,8.36l0,0c2.77,2.13,6.15,3.29,9.65,3.31l0.91,0c2.24,0,4.47,0,6.71,0
		c3.14,0,4-1.54,2.5-4.31c-1.06-1.96-8.44-3.95-9.52-5.9c-2.74-4.94-5.48-9.88-7.86-14.99c-1.96-4.22-3.32-8.88-3.98-13.49
		c-0.7-4.92,1.73-9.51,3.54-14.03c1.51-3.77,2.69-4.18,6.38-2.45c5.43,2.54,11.15,4.4,17.05,5.51c5.66,1.07,11.31,2.18,16.94,3.42
		c2.92,0.65,4.49,2.67,5.16,5.61c0.69,3.04,1.58,6.04,2.6,8.99c0.73,2.13,2.66,2.59,4.64,2.3
		C698.46,1561.51,700.89,1557.3,699.19,1552.75z"/>
	<path class="st2" d="M591.89,1590.79c-1.35,0.43-2.69,0.85-4.04,1.28c-1.94,0.62-3.72,1.39-4.14,3.67
		c-0.95,5.11-1.16,10.18,0.78,15.14c1.12,2.85,2.03,5.8,3.33,8.56c2.03,4.3,4.04,8.65,6.55,12.68c3.31,5.31,8.03,9.24,14.06,11.12
		c10.89,3.4,20.88,0.89,30-5.44c3.99-2.77,7.7-5.96,11.42-9.1c1.12-0.95,1.99-0.97,3.11-0.25c1.13,0.72,2.06,1.73,1.42,3.04
		c-1.09,2.23-2.12,4.66-3.8,6.41c-8.22,8.55-18.19,13.85-30.05,15.42c-11.99,1.58-22.17-2.23-30.86-10.36
		c-6.29-5.89-10.07-13.47-12.72-21.4c-4.5-13.43-8.96-26.88-13.39-40.33L591.89,1590.79z"/>
	<path class="st17" d="M566.99,1587.41c4.07,30.7,24.23,183.55,24.23,183.55l-46.77,5.78c0,0-57.52-199.5-54.57-230.01
		c2.95-30.51,24.48-33.08,24.48-33.08S556.21,1506.14,566.99,1587.41z"/>
	<path class="st11" d="M489.45,1358.87l39.07,5.58l-19.66,58.64c37.57,11.44,79.88,24.39,79.88,24.39s4.52,1.24,10.42,2.38
		c5.44,1.05,13.12,2.52,16.12,3.09c4.87,0.91,9.21,0.71,12.82,0.4c3.61-0.31,9.83-0.83,12.42,0.22c1.63,0.66,6.09,2.27,8.47,3.13
		c2.38,0.86,5.21,1.77,6.42,2.38c0.73,0.37,2.57,0.51,3.89,0.57c1.97,0.08,2.82,2.55,1.31,3.82c-1.43,1.19-4.09,1.15-5.74,1.12
		c-4.67-0.09-11.57-2.86-11.55-2.15c0.02,0.71,9.48,9.04,10.5,10.06c1.02,1.02,11.97,10.76,13.46,13.35
		c1.5,2.59,0.13,3.96-1.53,3.51c-1.43-0.38-17.55-12.72-17.55-12.72s-2.06-1.57-1.97-0.19c0.09,1.38,14.7,12.61,16.57,14.69
		c1.87,2.08,2.13,4.35-0.5,4.5c-3.2,0.19-18.06-12.76-18.06-12.76s-1.89-1.59-2.25-0.58c-0.36,1.01,12.24,10.35,12.96,11.76
		c0.72,1.4,0.05,3.4-2.38,3.05c-2.86-0.42-16.03-12.09-16.03-12.09s-1.25-0.6-1.2,0.19c0.05,0.79,10.21,9.53,10.54,11.32
		c0.28,1.5-1.07,1.78-1.07,1.78c-2.74,1.21-11.45-8.65-16.79-11.91c-5.34-3.27-9.79-9.44-16.59-12.64
		c-4.11-1.93-11.42-3.29-18.11-4.2c-4.55-0.44-9.53-0.94-14.81-1.5h0l0,0c-47.99-5.1-111.44-13.35-108.49-29.06
		C471.55,1431,484.52,1375.51,489.45,1358.87z"/>
	<path class="st6" d="M475.08,1377.33c9.33-40.45,27.97-82.19,57.7-90.83c11.49-3.34,28.82,34.86,1.03,115.08
		C518.32,1398.03,490.61,1384.77,475.08,1377.33z"/>
	<g>
		<g>
			<path class="st10" d="M1607.43,1271.41c-5.11-4.42-16.05-14.07-15.05-15.08c1.29-1.3,6.06-0.37,7.58,0.21
				c1.51,0.57,3.34,1.1,4.85,1.68c1.51,0.58,3.19-0.07,4.04-1.9c0.85-1.83-4.68-5.43-6.84-6.3c-6.73-2.7-26.17-6.28-28.21-6.75
				c-2.41-0.55-30.1-34.27-40.5-45.07c0,0,0,0,0.01,0c-16.5-18.19-32.55-37.7-34.29-39.64l-45.2-94.94l-41.25,3.02
				c0,0,48.68,106.07,51.72,111.1c1.45,2.39,42.96,41.57,42.98,41.56c21.66,18,40.79,33.82,44.38,36.96c0,0,8.2,12.28,12.97,20.41
				c3.05,5.21,7.28,9.36,10.38,12.22c8.56-7.73,19.44-10.08,29.55-15.52C1605.53,1272.76,1606.49,1272.09,1607.43,1271.41z"/>
			<path class="st12" d="M1424.47,981.27c0,0,37.43,0,62.46,140.86l-54.06,15.07l-27.79-83.07L1424.47,981.27z"/>
		</g>
		<path class="st5" d="M1884.83,1431.17l-4.02,13.15l22.03,7.65l0.9-5.5L1884.83,1431.17z M1885.52,1443.41l2.25-5.92l12.77,9.98
			L1885.52,1443.41z"/>
		
			<rect x="1760.79" y="1240.64" transform="matrix(0.4578 -0.889 0.889 0.4578 -269.031 2315.4797)" class="st16" width="6.24" height="275.36"/>
		<polygon class="st12" points="1643.75,1278.64 1636.98,1271.69 1598.3,1257.59 1554.57,1278.64 1605.48,1330.15 1609.17,1317.63 
			1577.19,1285.92 1598.85,1273.08 1602.63,1275.28 1615.83,1282.96 		"/>
		<path class="st2" d="M1669.06,1307.36c0,19.81-16.06,35.87-35.88,35.87c-19.82,0-35.88-16.06-35.88-35.87
			c0-19.81,16.06-35.87,35.88-35.87C1653,1271.49,1669.06,1287.55,1669.06,1307.36z"/>
		<path class="st24" d="M1651.42,1306.9c0,10.93-8.86,19.79-19.8,19.79s-19.8-8.86-19.8-19.79c0-10.93,8.86-19.79,19.8-19.79
			S1651.42,1295.97,1651.42,1306.9z"/>
		<path class="st26" d="M1595.23,1249.08c0,0,11.09,20.66,9.95,24.55c-0.62,2.11-18.13,14.44-28.31,14.44
			c-10.19,0,1.92-21.93,4.1-19.75c2.18,2.18,0.78,7.08,0.78,7.08s1.85-15.11,4.29-17.54c2.44-2.44,3.37,2.73,3.37,2.73
			s-3.65-12.87,0-14.04C1593.05,1245.38,1595.23,1249.08,1595.23,1249.08z"/>
		<path class="st11" d="M1483.83,1751.35c0,0-1.84,33.17-1.85,33.24c-0.68,4.21-3.35,14.62-3.35,18.45
			c0,14.38,62.83-12.21,48.75-18.58c-1.27-0.58-7.95-4.94-8.37-9.84c-0.65-7.54-2.28-22.8-2.28-22.8L1483.83,1751.35z"/>
		<path class="st21" d="M1527.22,1784.31c0,0-14.75,4.4-22.31,5.5c-7.56,1.1-17.52-8.16-22.86-5.66
			c-5.88,2.75-5.29,29.87-5.29,29.87s78.74,4.73,100.98-2.57C1586.56,1808.56,1557.38,1794.56,1527.22,1784.31z"/>
		<path class="st11" d="M1345.4,1754.53c0,0-1.84,33.17-1.85,33.24c-0.68,4.21-3.35,14.62-3.35,18.45
			c0,14.38,62.83-12.21,48.75-18.58c-1.27-0.58-9.93-8.2-10.35-13.09c-0.65-7.54-0.3-19.54-0.3-19.54L1345.4,1754.53z"/>
		<path class="st21" d="M1388.8,1787.5c0,0-14.75,4.4-22.31,5.5c-7.56,1.1-17.52-8.16-22.86-5.66c-5.88,2.75-6.12,27.54-6.12,27.54
			s84.18,6.22,103.97,0.38C1450.38,1812.63,1418.95,1797.74,1388.8,1787.5z"/>
		<path class="st5" d="M1444.97,1275.65l26.56,11.67l55.88,271.8l-2.26,203.76l-44.79,1.06c0,0-20.83-178.24-20.83-192.05
			s-96.5-241.73-96.5-241.73L1444.97,1275.65z"/>
		<path class="st17" d="M1424.47,1290.61c0,0-19.57,209.42-19.57,244.72c0,35.3-15.87,232.87-15.87,232.87l-44.9-0.26
			c0,0-3.24-60.22-8.05-148.82c-0.75-13.88,0.97-41.87,0-56.24c-6.98-103.32-20.8-200.57-14.2-239.13
			c1.06-6.21,3.06-22.43,6.94-26.53C1358.22,1266.24,1424.47,1290.61,1424.47,1290.61z"/>
		<path class="st2" d="M1350.52,977.43c0,0-30.98,4.39-39.14,10.49c-9.18,6.87-19.38,22.24-19.38,22.24s38.04,183.15,38.11,213.97
			c0.05,23.84-8.24,82.39-8.24,82.39s114.95,7.39,158.48-10.11c0,0-13.75-69.63-13.75-87.91c0-18.28-16.44-184.54-20.19-196.15
			c-3.4-10.54-9.6-29.47-30.61-34.13C1394.82,973.54,1350.52,977.43,1350.52,977.43z"/>
		<path class="st11" d="M1358.98,928.12l-7.67,51.14c0,0,28.01,60.9,44.73,55.62c14.03-4.43,5.4-58.31,5.4-58.31
			s-7.65-28.94-5.35-43.42C1398.37,918.66,1358.98,928.12,1358.98,928.12z"/>
		<path class="st2" d="M1396.08,933.15c2.29-14.48-37.1-5.03-37.1-5.03l-0.64,4.24c1.15,2.84,2.56,5.27,4.27,7.13
			c8.8,9.58,22.55,15.34,34.45,15.77C1395.87,947.45,1395.14,939.08,1396.08,933.15z"/>
		<g>
			<path class="st11" d="M1352.51,855.76c-1.11-0.41-8.92,58.25,5.9,74.39c14.82,16.14,43.7,21.42,54.06,8.71
				c11.46-14.06,10.88-77.11-12.16-93.71C1377.26,828.55,1352.51,855.76,1352.51,855.76z"/>
			<path class="st15" d="M1391.54,813.77c-17.81,3.68-29.35,14.69-33.59,19.39c-8.09,0.97-19.08,5.49-30.43,24.51
				c-13.96,23.39-3.65,49.29,12.6,62.01c16.25,12.71,16.07,27.47,16.07,27.47l2.53-7.67c1.9-5.75,2.67-11.85,2.04-17.89
				c-0.38-3.62-1.15-7.54-2.63-10.76c-3.91-8.49,8.4-14.13,11.84-21.19c2.66-5.44,2.79-17.88,6.97-26.87l5-6.86
				c0,0,11.53-9.08,22.81-6.52C1416.02,851.95,1414.39,809.06,1391.54,813.77z"/>
			<path class="st11" d="M1369.2,900.08c0.12,7.16-3.1,13.02-7.18,13.09c-4.08,0.07-7.49-5.67-7.61-12.83
				c-0.12-7.16,3.1-13.02,7.18-13.09C1365.67,887.17,1369.08,892.92,1369.2,900.08z"/>
		</g>
		<path class="st27" d="M1302.68,1330.76c-0.28-0.49-0.5-1-0.66-1.53c-5.18-17.27-42.48-145.98-42.59-152.86
			c-0.1-6.21,19.24-136.39,19.24-136.39l38.55,21.82l-18.05,110.83c0.74,5.59,17.93,108.51,17.93,108.51s2.65,18.96,4.9,30.04
			c1.92,2.11,3.76,4.08,5.33,5.68c3.65,3.29,7.36,5.7,10.63,7.67c4.12,2.47,11.71,8.45,13.11,10.31c1.62,2.16,4.82,6.73,6.71,9.5
			c1.89,2.77,4.22,5.95,5.05,7.54c0.5,0.97,2.36,2.54,3.73,3.63c2.05,1.62,1.05,4.93-1.56,5.11c-2.46,0.17-5.29-1.94-7.04-3.25
			c-4.95-3.72-10.19-12.06-10.73-11.28c-0.53,0.77,3.16,17.06,3.46,18.95c0.3,1.89,4.49,20.84,4.08,24.79
			c-0.41,3.95-2.93,4.35-4.37,2.57c-1.24-1.53-8.96-27.28-8.96-27.28s-0.99-3.28-1.97-1.73c-0.98,1.55,5.99,24.95,6.38,28.64
			c0.39,3.68-1.09,6.33-4.03,4.45c-3.58-2.28-9.48-27.72-9.48-27.72s-0.79-3.17-1.96-2.37c-1.17,0.8,5.1,20.61,4.78,22.68
			c-0.32,2.06-2.59,3.69-4.92,1.42c-2.75-2.67-7.81-25.42-7.81-25.42s-0.88-1.62-1.44-0.73s3.56,18.16,2.53,20.34
			c-0.87,1.83-2.53,1.08-2.53,1.08c-3.88-0.82-5.57-18.17-8.77-25.82c-3.2-7.66-3.18-17.74-7.99-26.45
			C1303.92,1332.92,1303.16,1331.59,1302.68,1330.76z"/>
		<path class="st5" d="M1317.09,985.03c0,0-18.14,4.25-36.88,25.71c-17.04,19.51-27.78,128.74-27.78,128.74l58.84,9.69l3.71-41.73
			c1.16-13.03,1.76-26.1,1.81-39.18L1317.09,985.03z"/>
		<path class="st0" d="M1394.65,923.32c0,0,1.72,7.61,10.66,6.41c10.9-1.46,9.57-9.71,9.57-9.71L1394.65,923.32z"/>
		<g>
			<g>
				<path class="st15" d="M1875.86,1775.8l-15.74,5.84l43.48,2.66c12.58,0,24.38,6.07,31.68,16.3l0,0c1.35,1.89,2.08,4.16,2.08,6.48
					v8.32l-127.42-14.64c0,0-15.63-73.49-12.89-77.15c2.75-3.66,69.99-82.87,69.99-82.87s56.31,48.68,36.66,101.34
					C1898.48,1756.11,1888.51,1767.84,1875.86,1775.8z"/>
				<path class="st5" d="M2046.24,1281.56l-26.84,33.54c0,0-10.37,14.64-10.37,23.18c0,8.54,8.54,43.91,8.54,43.91
					s5.49,14.64,4.88,25.62c-0.61,10.98,10.37,38.42,10.37,55.5c0,17.08,17.69,35.98,13.42,73.19
					c-4.27,37.2-37.21,96.36-37.21,96.36l-6.1,151.86c0,0,27.45,11.59,29.89,15.25c2.44,3.66-1.22,15.86-1.22,15.86h-41.48
					l-1.88-3.18c-9.22-15.6-15.07-32.95-17.17-50.94l-13.28-113.6c0,0-12.61,19.31-37.82,33.95
					c-25.21,14.64-74.42,14.64-74.42,14.64s25.62,45.54-18.3,78.07l-8.13,9.35l61.1,2.84c5.77,0.27,11.31,2.28,15.91,5.77l0,0
					c8.39,6.38,13.43,16.22,13.69,26.76l0,0l-137.87-8.54l-1.27-16.22c-0.23-2.92,0.55-5.83,2.21-8.24l5.56-8.07
					c0,0-26.03-16.67-27.25-36.19c0,0-9.35-2.03-17.89,2.03c-8.54,4.07-25.62,30.9-72.8,25.21c-47.18-5.69-88.25-34.16-92.32-65.06
					c0,0,19.52,30.09,59.78,36.59c40.26,6.5,89.47-32.53,89.47-32.53s15.05-50.01,32.53-80.1
					c17.49-30.09,148.85-171.58,148.85-171.58l-0.41-114.66l0,0c-0.26-21.22,5.7-42.05,17.15-59.91l2.77-4.33l28.91-17.27
					c2.88-1.72,6.24-2.48,9.58-2.16l20.48,1.95l44.33-37C2021.63,1223.42,2048.07,1242.12,2046.24,1281.56z"/>
				<path class="st15" d="M1918.34,1277.9c0,0,11.39-4.07,23.18,4.88c11.79,8.95,13.42,45.13,21.15,60.99
					c7.73,15.86,10.57,36.19-8.54,45.13c-19.11,8.95-38.23-2.85-48.4,2.03c-10.17,4.88-19.11-4.07-17.08-17.08
					C1890.68,1360.85,1889.06,1288.47,1918.34,1277.9z"/>
			</g>
			<path class="st2" d="M2023.02,1413.56c0,0-69.78,29.07-123.83,22.73c0,0-3.79,10.85,0.08,21.25c0,0,74.55,4.86,126.89-21.99
				C2026.16,1435.56,2032.02,1422.49,2023.02,1413.56z"/>
		</g>
	</g>
	<g>
		<rect x="1715.69" y="676.44" class="st3" width="297.27" height="454.5"/>
		<rect x="1734.9" y="707.2" class="st4" width="258.75" height="12.77"/>
		<rect x="1734.9" y="747.23" class="st4" width="258.75" height="12.77"/>
		<rect x="1734.9" y="787.27" class="st4" width="258.75" height="12.77"/>
		<rect x="1734.9" y="827.31" class="st4" width="126" height="12.77"/>
		<rect x="1734.9" y="867.34" class="st4" width="126" height="12.77"/>
		<rect x="1734.9" y="907.38" class="st4" width="126" height="12.77"/>
		<rect x="1734.9" y="947.42" class="st4" width="126" height="12.77"/>
		<rect x="1734.9" y="987.45" class="st4" width="258.75" height="12.77"/>
		<rect x="1734.9" y="1024.12" class="st4" width="258.75" height="12.77"/>
		<rect x="1734.9" y="1060.78" class="st4" width="258.75" height="12.77"/>
		<rect x="1883.92" y="827.31" class="st4" width="109.72" height="132.88"/>
	</g>
	<path class="st2" d="M796.53,1416.08c-7.66-6.68-15.19-4.33-15.19-4.33s0,0,0,0c-0.54,0.13-1.09,0.29-1.66,0.49
		c-4.13-2.37-8.38,0.69-8.38,0.69c0.77,1.17,1.62,2,2.5,2.57c-2.2,1.65-4.53,3.89-6.97,6.85c-2.44-5.33-8.61-4.14-8.61-4.14
		c0.7,4.75,4.02,6.32,6.52,6.81c0,0,0,0,0,0.01c0,0,0.01,0,0.02,0.01c-2,1.51-4.2,4.4-2.33,9.34c0,0,5.85-2.53,5.43-8.13
		c2.62,0.91,6.61,2.03,10.8,2.25c-0.35,0.64-0.59,1.44-0.66,2.46c0,0,3.49,0.08,4.94-2.6c0.74-0.09,1.47-0.22,2.18-0.4
		c0.23-0.04,0.47-0.1,0.72-0.19c0.65-0.19,1.24-0.43,1.78-0.72c6.11-2.83,8.12-7.83,8.12-7.83l-1.63-0.87L796.53,1416.08z"/>
	<g>
		<path class="st3" d="M357.44,998.58L357.44,998.58c0-11.66-8.66-21.29-19.9-22.81v-29.32c0-20.72-16.8-37.52-37.52-37.52H148.94
			c-20.72,0-37.52,16.8-37.52,37.52v29.46c-10.81,1.89-19.03,11.32-19.03,22.68l0,0c0,11.36,8.22,20.78,19.03,22.68v153.66
			c-10.81,1.89-19.03,11.32-19.03,22.68l0,0c0,11.35,8.22,20.78,19.03,22.68v3.39c0,20.72,16.8,37.52,37.52,37.52h29.86
			c5.39,0,9.76,4.37,9.76,9.76v10.71h71.84v-10.71c0-5.39,4.37-9.76,9.76-9.76h29.86c20.72,0,37.52-16.8,37.52-37.52v-3.25
			c11.24-1.53,19.9-11.16,19.9-22.81l0,0c0-11.66-8.66-21.29-19.9-22.81v-153.38C348.78,1019.87,357.44,1010.24,357.44,998.58z"/>
		<path class="st28" d="M337.55,1097.5c0,3.79-50.62,6.86-113.06,6.86c-62.44,0-113.06-3.07-113.06-6.86
			c0-3.79,50.62-6.85,113.06-6.85C286.93,1090.64,337.55,1093.71,337.55,1097.5z"/>
		<path class="st3" d="M337.54,1174.2v-76.66c-0.37,3.77-50.84,6.81-113.06,6.81c-62.44,0-113.07-3.07-113.07-6.86v76.84
			c-10.81,1.89-19.03,11.32-19.03,22.68s8.22,20.78,19.03,22.68v3.39c0,20.72,16.8,37.52,37.52,37.52h29.86
			c5.39,0,9.76,4.37,9.76,9.76v10.71h71.84v-10.71c0-5.39,4.37-9.76,9.76-9.76h29.86c20.72,0,37.52-16.8,37.52-37.52v-3.25
			c11.24-1.53,19.9-11.16,19.9-22.81S348.78,1175.73,337.54,1174.2z"/>
		<path class="st3" d="M337.54,1174.78v-153.38c11.24-1.53,19.9-11.16,19.9-22.81c0-11.66-8.66-21.29-19.9-22.81v-29.32
			c0-20.72-16.8-37.52-37.52-37.52H148.94c-20.72,0-37.52,16.8-37.52,37.52v29.46c-10.81,1.89-19.03,11.32-19.03,22.68
			c0,11.36,8.22,20.78,19.03,22.68v153.66c-10.81,1.89-19.03,11.32-19.03,22.68s8.22,20.78,19.03,22.68v3.39
			c0,20.72,16.8,37.52,37.52,37.52h29.86c5.39,0,9.76,4.37,9.76,9.76v10.71h5v-5v-5.71c0-8.14-6.62-14.76-14.76-14.76h-29.86
			c-17.93,0-32.52-14.59-32.52-32.52v-3.39c0-2.43-1.75-4.51-4.14-4.93c-8.63-1.51-14.89-8.98-14.89-17.75
			c0-8.77,6.26-16.24,14.89-17.75c2.39-0.42,4.14-2.5,4.14-4.93v-153.66c0-2.43-1.75-4.51-4.14-4.92
			c-8.63-1.51-14.89-8.98-14.89-17.75c0-8.77,6.26-16.24,14.89-17.75c2.39-0.42,4.14-2.5,4.14-4.92v-29.46
			c0-17.93,14.59-32.52,32.52-32.52h151.08c17.93,0,32.52,14.59,32.52,32.52v29.32c0,2.5,1.85,4.62,4.33,4.95
			c8.88,1.21,15.58,8.88,15.58,17.86c0,8.97-6.7,16.65-15.58,17.86c-2.48,0.34-4.33,2.45-4.33,4.95v153.38
			c0,2.5,1.85,4.62,4.33,4.96c8.88,1.21,15.58,8.88,15.58,17.86s-6.7,16.65-15.58,17.86c-2.48,0.34-4.33,2.45-4.33,4.96v3.25
			c0,17.93-14.59,32.52-32.52,32.52h-29.86c-8.14,0-14.76,6.62-14.76,14.76v5.71h-0.1v5h5.1v-10.71c0-5.39,4.37-9.76,9.76-9.76
			h29.86c20.72,0,37.52-16.8,37.52-37.52v-3.25c11.24-1.53,19.9-11.16,19.9-22.81S348.78,1176.31,337.54,1174.78z"/>
		<path class="st2" d="M262.73,1329.27H187.1c-11.96,0-21.66-9.7-21.66-21.66v-4.58c0-11.96,9.7-21.66,21.66-21.66h75.63
			c11.96,0,21.66,9.7,21.66,21.66v4.58C284.39,1319.57,274.7,1329.27,262.73,1329.27z"/>
		<path class="st3" d="M268.76,1815.54h-87.7c-46.34,0-83.9-37.56-83.9-83.9v-343.19c0-46.34,37.56-83.9,83.9-83.9h87.7
			c46.34,0,83.9,37.56,83.9,83.9v343.19C352.66,1777.98,315.1,1815.54,268.76,1815.54z"/>
		<path class="st17" d="M301.88,1533.23H147.95V1412.6c0-24.3,19.7-44,44-44h65.92c24.3,0,44,19.7,44,44V1533.23z"/>
		<path class="st5" d="M288.95,1533.23H160.88v-123.52c0-16.2,13.13-29.33,29.33-29.33h69.4c16.2,0,29.33,13.13,29.33,29.33V1533.23
			z"/>
		<path class="st17" d="M314.73,1544.1H137.28c-2.71,0-4.91-2.2-4.91-4.91v-1.04c0-2.71,2.2-4.91,4.91-4.91h177.45
			c2.71,0,4.91,2.2,4.91,4.91v1.04C319.64,1541.9,317.44,1544.1,314.73,1544.1z"/>
		<g>
			<path class="st19" d="M310.38,1804.54H139.45c-16.35,0-29.66-13.3-29.66-29.66V1345.2c0-16.35,13.3-29.66,29.66-29.66h170.94
				c16.35,0,29.66,13.3,29.66,29.66v429.69C340.04,1791.24,326.73,1804.54,310.38,1804.54z M139.45,1317.5
				c-15.27,0-27.7,12.43-27.7,27.7v429.69c0,15.27,12.43,27.7,27.7,27.7h170.94c15.27,0,27.7-12.43,27.7-27.7V1345.2
				c0-15.27-12.43-27.7-27.7-27.7H139.45z"/>
		</g>
		<path class="st19" d="M135.69,1781.36c0,2.92-2.37,5.29-5.29,5.29c-2.92,0-5.29-2.37-5.29-5.29c0-2.92,2.37-5.29,5.29-5.29
			C133.33,1776.07,135.69,1778.44,135.69,1781.36z"/>
		<path class="st19" d="M322.97,1781.36c0,2.92-2.37,5.29-5.29,5.29s-5.29-2.37-5.29-5.29c0-2.92,2.37-5.29,5.29-5.29
			S322.97,1778.44,322.97,1781.36z"/>
		<path class="st19" d="M135.69,1340.75c0,2.92-2.37,5.29-5.29,5.29c-2.92,0-5.29-2.37-5.29-5.29s2.37-5.29,5.29-5.29
			C133.33,1335.47,135.69,1337.83,135.69,1340.75z"/>
		<path class="st19" d="M322.97,1340.75c0,2.92-2.37,5.29-5.29,5.29s-5.29-2.37-5.29-5.29s2.37-5.29,5.29-5.29
			S322.97,1337.83,322.97,1340.75z"/>
		<g>
			<g>
				<g>
					<g>
						<path class="st19" d="M288.44,1739.5H161.39c-8.13,0-14.74-6.61-14.74-14.73v-45.57c0-8.13,6.61-14.74,14.74-14.74h127.06
							c8.13,0,14.74,6.61,14.74,14.74v45.57C303.18,1732.89,296.57,1739.5,288.44,1739.5z M161.39,1667.06
							c-6.69,0-12.13,5.44-12.13,12.13v45.57c0,6.69,5.44,12.13,12.13,12.13h127.06c6.69,0,12.13-5.44,12.13-12.13v-45.57
							c0-6.69-5.44-12.13-12.13-12.13H161.39z"/>
					</g>
				</g>
			</g>
		</g>
		<g>
			<g>
				<path class="st0" d="M196.73,1452.59h-1.12l2.94-26.62c0.19-1.73-1.16-3.23-2.9-3.23h-2.42h-5.67h-2.42
					c-1.74,0-3.09,1.51-2.9,3.23l2.94,26.62h-1.12c-1.2,0-2.17,0.97-2.17,2.17v7.27c0,1.2,0.97,2.17,2.17,2.17h12.66
					c1.2,0,2.17-0.97,2.17-2.17v-7.27C198.9,1453.57,197.93,1452.59,196.73,1452.59z"/>
				<path class="st2" d="M198.95,1460.84h-16.92c-1.11,0-2.01-0.9-2.01-2.01v-0.43c0-1.11,0.9-2.01,2.01-2.01h16.92
					c1.11,0,2.01,0.9,2.01,2.01v0.43C200.96,1459.94,200.06,1460.84,198.95,1460.84z"/>
			</g>
			<path class="st0" d="M265.58,1452.59h-1.12l2.94-26.62c0.19-1.73-1.16-3.23-2.9-3.23h-2.42h-5.67H254c-1.74,0-3.09,1.51-2.9,3.23
				l2.94,26.62h-1.12c-1.2,0-2.17,0.97-2.17,2.17v7.27c0,1.2,0.97,2.17,2.17,2.17h12.66c1.2,0,2.17-0.97,2.17-2.17v-7.27
				C267.75,1453.57,266.78,1452.59,265.58,1452.59z"/>
			<path class="st17" d="M267.8,1460.84h-16.92c-1.11,0-2.01-0.9-2.01-2.01v-0.43c0-1.11,0.9-2.01,2.01-2.01h16.92
				c1.11,0,2.01,0.9,2.01,2.01v0.43C269.82,1459.94,268.92,1460.84,267.8,1460.84z"/>
		</g>
	</g>
	<rect x="69.28" y="1811.16" class="st12" width="3061.98" height="12.72"/>
	
		<rect x="1706.1" y="667.35" transform="matrix(-1 -1.224647e-16 1.224647e-16 -1 3728.6416 1343.7983)" class="st2" width="316.44" height="9.09"/>
</g>
</svg>
